Coordinates
version=1
nRows=4
nColumns=107
inDegrees=yes

Units are S.I. units (second, meters, Newtons, ...)
If the header above contains a line with 'inDegrees', this indicates whether rotational values are in degrees (yes) or radians (no).

endheader
time	sternoclavicular_r2	sternoclavicular_r3	unrotscap_r3	unrotscap_r2	acromioclavicular_r2	acromioclavicular_r3	acromioclavicular_r1	unrothum_r1	unrothum_r3	unrothum_r2	elv_angle	shoulder_elv	shoulder1_r2	shoulder_rot	elbow_flexion	pro_sup	deviation	flexion	proximal_distal_r1	proximal_distal_r3	cmc_flexion	cmc_abduction	mp_flexion	ip_flexion	mcp2_flexion	mcp2_abduction	pm2_flexion	md2_flexion	mcp3_flexion	mcp3_abduction	pm3_flexion	md3_flexion	mcp4_flexion	mcp4_abduction	pm4_flexion	md4_flexion	mcp5_flexion	mcp5_abduction	pm5_flexion	md5_flexion	bicpt_tx	bicpt_ty	bicpt_tz	bicpt2_tx	bicpt2_ty	bicpt2_tz	ptpt_tx	ptpt_ty	ptpt_tz	FCUpt_tx	FCUpt_ty	FCUpt_tz	EDCpt_tx	EDCpt_ty	EDCpt_tz	APLpt_tx	APLpt_ty	APLpt_tz	FPLpt_tx	FPLpt_ty	FPLpt_tz	FPLpt2_tx	FPLpt2_ty	FPLpt2_tz	PEC1pt2_tx	PEC1pt2_ty	PEC1pt2_tz	PEC1pt3_tx	PEC1pt3_ty	PEC1pt3_tz	PEC2pt2_tx	PEC2pt2_ty	PEC2pt2_tz	PEC2pt3_tx	PEC2pt3_ty	PEC2pt3_tz	PEC3pt2_tx	PEC3pt2_ty	PEC3pt2_tz	PEC3pt3_tx	PEC3pt3_ty	PEC3pt3_tz	DELT2pt2a_tx	DELT2pt2a_ty	DELT2pt2a_tz	DELT2pt2_tx	DELT2pt2_ty	DELT2pt2_tz	LAT1pt2_tx	LAT1pt2_ty	LAT1pt2_tz	LAT1pt3_tx	LAT1pt3_ty	LAT1pt3_tz	LAT2pt2_tx	LAT2pt2_ty	LAT2pt2_tz	LAT2pt3_tx	LAT2pt3_ty	LAT2pt3_tz	LAT3pt2_tx	LAT3pt2_ty	LAT3pt2_tz	LAT3pt3_tx	LAT3pt3_ty	LAT3pt3_tz
      0.66666667	     -0.31452176	      0.13321657	     -0.13321657	      0.31452176	     -0.06368426	      0.51467378	      0.23134232	     -0.23134232	     -0.51467378	      0.06368426	    101.65619200	     74.46582319	     -1.77423526	    -37.69693605	     31.32071364	     86.53223633	      0.34194571	     -0.34420415	      0.36836301	     -0.17210207	     40.28889418	    -23.35977935	      4.47036206	      4.05292133	     98.29720619	     12.04548769	     70.02881202	     70.78211051	     96.70098473	     -1.71150149	     75.49670688	     55.99385867	     89.39786886	    -13.61920573	     90.76041017	     45.79760674	     93.18864602	    -14.18943483	     98.42584898	      5.35006634	      0.00093599	     -0.03118983	     -0.00487823	      0.01418457	     -0.01870843	     -0.00098470	      0.00115624	     -0.06903431	     -0.00702064	      0.01279919	     -0.18221967	      0.00009856	     -0.01038384	      0.00360726	     -0.00077438	      0.00025295	      0.00010118	      0.00050590	      0.00032378	      0.00097133	      0.00054638	     -0.00001011	     -0.00010545	     -0.00012654	      0.00244083	      0.00856358	      0.00595727	     -0.00798440	      0.01927839	     -0.01828551	      0.00244083	      0.00856358	      0.00595727	      0.00053781	      0.01787181	     -0.00939098	      0.00388301	      0.00476210	      0.01580674	      0.00000000	      0.00741363	      0.00000000	     -0.00699152	     -0.03230992	     -0.00611075	      0.02189386	     -0.00102743	     -0.01157912	     -0.00086877	      0.01456222	     -0.00595727	      0.00239946	      0.02101593	     -0.01737537	     -0.00583316	      0.01261783	     -0.00533672	     -0.01216276	      0.02664224	     -0.02982772	     -0.02283621	      0.01410715	     -0.00715700	     -0.01514140	      0.03077923	     -0.03727431
      0.70000000	     -0.31550974	      0.13363503	     -0.13363503	      0.31550974	     -0.06388430	      0.51629048	      0.23206902	     -0.23206902	     -0.51629048	      0.06388430	    101.42210797	     74.69973537	     -1.77014972	    -36.57706258	     31.20507181	     85.99537122	      0.35315668	     -0.32484271	      0.37719963	     -0.16242135	     40.38160946	    -23.40608600	      4.22150305	      4.35041804	     98.68863396	     12.11791638	     69.35859499	     71.34389975	     97.15836445	     -1.60146312	     74.65337335	     56.09709003	     89.88506844	    -13.64325558	     90.03048743	     45.28979678	     93.82568232	    -14.19743201	     96.36617108	      5.42579951	      0.00093217	     -0.03117658	     -0.00487609	      0.01424039	     -0.01867701	     -0.00107683	      0.00119591	     -0.06900866	     -0.00697739	      0.01273747	     -0.18223789	      0.00008367	     -0.01031942	      0.00357776	     -0.00075707	      0.00024400	      0.00009760	      0.00048800	      0.00031232	      0.00093695	      0.00052704	     -0.00000999	     -0.00010361	     -0.00012433	      0.00244849	      0.00859048	      0.00597598	     -0.00800948	      0.01933895	     -0.01834295	      0.00244849	      0.00859048	      0.00597598	      0.00053950	      0.01792795	     -0.00942047	      0.00389200	      0.00477706	      0.01582928	      0.00000000	      0.00746059	      0.00000000	     -0.00701348	     -0.03241141	     -0.00614975	      0.02150434	     -0.00098724	     -0.01094703	     -0.00087150	      0.01460796	     -0.00597598	      0.00240699	      0.02108194	     -0.01742995	     -0.00585148	      0.01265747	     -0.00535349	     -0.01220097	      0.02672593	     -0.02992142	     -0.02290794	      0.01415146	     -0.00717948	     -0.01518896	      0.03087592	     -0.03739140
      0.73333333	     -0.31514544	      0.13348073	     -0.13348073	      0.31514544	     -0.06381054	      0.51569435	      0.23180106	     -0.23180106	     -0.51569435	      0.06381054	    101.27182589	     74.61348397	     -1.76752680	    -36.41982668	     31.59823048	     86.25181548	      0.36531560	     -0.27708979	      0.38655098	     -0.13854489	     40.13219365	    -23.41619503	      4.76597016	      3.67272844	     98.08222863	     12.05546952	     69.58881740	     72.43542352	     96.37595160	     -1.54237990	     75.42256726	     56.26676872	     89.05985131	    -13.60513138	     91.05658602	     45.20620458	     92.64099645	    -14.19400954	     97.92545276	      5.35268897	      0.00094517	     -0.03122164	     -0.00488335	      0.01421380	     -0.01878381	     -0.00103287	      0.00117696	     -0.06902091	     -0.00699805	      0.01276694	     -0.18222920	      0.00009076	     -0.01035019	      0.00359184	     -0.00076532	      0.00021922	      0.00008769	      0.00043844	      0.00028060	      0.00084180	      0.00047351	     -0.00001031	     -0.00010853	     -0.00013024	      0.00244567	      0.00858056	      0.00596908	     -0.00800023	      0.01931662	     -0.01832177	      0.00244567	      0.00858056	      0.00596908	      0.00053888	      0.01790725	     -0.00940960	      0.00388869	      0.00477154	      0.01582098	      0.00000000	      0.00744325	      0.00000000	     -0.00700538	     -0.03237399	     -0.00613535	      0.02144830	     -0.00098162	     -0.01085926	     -0.00087049	      0.01459109	     -0.00596908	      0.00240421	      0.02105760	     -0.01740983	     -0.00584473	      0.01264285	     -0.00534730	     -0.01218688	      0.02669507	     -0.02988687	     -0.02288149	      0.01413512	     -0.00717119	     -0.01517142	      0.03084027	     -0.03734823
      0.76666667	     -0.31588607	      0.13379443	     -0.13379443	      0.31588607	     -0.06396050	      0.51690629	      0.23234582	     -0.23234582	     -0.51690629	      0.06396050	    101.10547507	     74.78883489	     -1.76462343	    -35.61102820	     31.50767142	     85.78868560	      0.37242867	     -0.26233231	      0.39190868	     -0.13116616	     40.21038321	    -23.46346126	      4.74014941	      3.21077602	     98.11181130	     12.08094056	     69.48474557	     72.68653709	     96.62030762	     -1.58659412	     75.12957885	     56.09913882	     89.38811048	    -13.62129863	     90.62896412	     44.72044106	     92.98962844	    -14.19535099	     97.12642492	      5.34146102	      0.00094218	     -0.03121126	     -0.00488168	      0.01426172	     -0.01875921	     -0.00111221	      0.00121118	     -0.06899878	     -0.00696074	      0.01271373	     -0.18224489	      0.00007799	     -0.01029462	      0.00356642	     -0.00075044	      0.00021077	      0.00008431	      0.00042155	      0.00026979	      0.00080937	      0.00045527	     -0.00001021	     -0.00010700	     -0.00012840	      0.00245141	      0.00860072	      0.00598311	     -0.00801903	      0.01936201	     -0.01836483	      0.00245141	      0.00860072	      0.00598311	      0.00054014	      0.01794934	     -0.00943171	      0.00389542	      0.00478275	      0.01583783	      0.00000000	      0.00747851	      0.00000000	     -0.00702185	     -0.03245007	     -0.00616463	      0.02115491	     -0.00095278	     -0.01041156	     -0.00087254	      0.01462538	     -0.00598311	      0.00240986	      0.02110709	     -0.01745074	     -0.00585846	      0.01267256	     -0.00535987	     -0.01221552	      0.02675781	     -0.02995711	     -0.02293526	      0.01416834	     -0.00718804	     -0.01520708	      0.03091274	     -0.03743600
